#!OML:ASF H:\ManfredETheater\Project 1\Capture day 1\Session 1\subject.ASF
:FULLY-SPECIFIED
:DEGREES
270
root -9.63996 17.1419 -26.7469 -161.65 -28.6511 -184.377
lowerback 10.5271 -0.459961 -5.19086
upperback -1.9854 -1.30492 0.199978
thorax -7.91955 -0.391652 3.36414
lowerneck -15.0899 -2.9574 -4.11098
upperneck 6.10955 -3.74781 5.42445
head 4.45137 -1.63651 2.03849
rclavicle 7.04195e-014 1.76918e-014
rhumerus -44.4054 2.01522 -87.8592
rradius 59.857
rwrist -5.7717
rhand -26.4453 -0.986973
rfingers 7.12502
rthumb 0.115634 -30.9667
lclavicle 7.04195e-014 1.76918e-014
lhumerus -40.6898 -8.58674 97.8943
lradius 67.4287
lwrist 1.88247
lhand -24.1619 -7.15457
lfingers 7.12502
lthumb 2.32097 22.8126
rfemur -32.5992 -4.02641 14.0575
rtibia 66.0586
rfoot -19.3551 -1.60838
rtoes -39.1047
lfemur -19.2293 -5.66891 -26.3084
ltibia 42.2636
lfoot -35.9964 7.2076
ltoes 8.13978
271
root -9.68907 17.1119 -26.8287 -161.397 -28.4321 -184.703
lowerback 10.741 -0.523422 -5.4611
upperback -1.90905 -1.44462 0.134337
thorax -7.94382 -0.450428 3.47453
lowerneck -15.1919 -2.84272 -3.96475
upperneck 6.02642 -3.61195 5.34389
head 4.43106 -1.57172 2.0007
rclavicle 1.2424e-014 1.35174e-014
rhumerus -44.3563 1.14259 -87.4531
rradius 59.4844
rwrist -6.39347
rhand -26.7573 -1.36254
rfingers 7.12502
rthumb -0.185675 -31.3422
lclavicle 1.2424e-014 1.35174e-014
lhumerus -40.3126 -8.97906 98.0699
lradius 67.8695
lwrist 2.11501
lhand -24.0865 -7.3757
lfingers 7.12502
lthumb 2.39379 22.5906
rfemur -34.2023 -4.4954 13.7372
rtibia 68.4639
rfoot -18.0369 -1.86237
rtoes -38.9777
lfemur -18.828 -5.58486 -26.7308
ltibia 42.0381
lfoot -36.2343 7.31856
ltoes 8.08972
272
root -9.73895 17.0814 -26.9143 -161.115 -28.2473 -185.048
lowerback 10.9388 -0.602135 -5.73957
upperback -1.84228 -1.60661 0.0690668
thorax -7.96561 -0.519741 3.59396
lowerneck -15.3027 -2.72519 -3.82522
upperneck 5.95734 -3.47173 5.26444
head 4.41672 -1.50466 1.96461
rclavicle -4.6118e-014 -2.98177e-015
rhumerus -44.338 0.278393 -87.0595
rradius 59.0899
rwrist -7.07979
rhand -27.1171 -1.73379
rfingers 7.12502
rthumb -0.533187 -31.7129
lclavicle -4.6118e-014 -2.98177e-015
lhumerus -39.9467 -9.3711 98.2292
lradius 68.3162
lwrist 2.31229
lhand -24.0204 -7.64464
lfingers 7.12502
lthumb 2.45764 22.3209
rfemur -35.838 -5.04655 13.4619
rtibia 70.7352
rfoot -17.0627 -2.33492
rtoes -38.9009
lfemur -18.4339 -5.52618 -27.1522
ltibia 41.7936
lfoot -36.4517 7.41965
ltoes 7.95885
273
root -9.78992 17.0505 -27.0038 -160.811 -28.1027 -185.389
lowerback 11.1217 -0.696932 -6.00236
upperback -1.78576 -1.78807 0.00873571
thorax -7.98676 -0.599008 3.71339
lowerneck -15.4136 -2.60773 -3.68577
upperneck 5.89115 -3.33165 5.17993
head 4.40347 -1.43804 1.92695
rclavicle 5.93869e-014 7.95139e-015
rhumerus -44.3584 -0.567205 -86.6778
rradius 58.6852
rwrist -7.81246
rhand -27.5049 -2.11362
rfingers 7.12502
rthumb -0.907772 -32.0914
lclavicle 5.93869e-014 7.95139e-015
lhumerus -39.591 -9.76108 98.3753
lradius 68.7796
lwrist 2.50215
lhand -23.9634 -7.89849
lfingers 7.12502
lthumb 2.51268 22.0665
rfemur -37.4987 -5.68152 13.2589
rtibia 72.8485
rfoot -16.4554 -2.96651
rtoes -38.9149
lfemur -18.0441 -5.49486 -27.552
ltibia 41.5323
lfoot -36.6531 7.51609
ltoes 7.74008
